<?xml version="1.0" encoding="UTF-8" standalone="no"?>
<!-- Generator: Adobe Illustrator 28.1.0, SVG Export Plug-In . SVG Version: 6.00 Build 0)  -->

<svg
   version="1.1"
   x="0px"
   y="0px"
   viewBox="0 0 999.99999 424.01428"
   enable-background="new 0 0 1854.077 1080"
   xml:space="preserve"
   id="svg24"
   sodipodi:docname="Ant Group English.svg"
   width="1000"
   height="424.01428"
   inkscape:version="1.3.2 (091e20e, 2023-11-25, custom)"
   xmlns:inkscape="http://www.inkscape.org/namespaces/inkscape"
   xmlns:sodipodi="http://sodipodi.sourceforge.net/DTD/sodipodi-0.dtd"
   xmlns="http://www.w3.org/2000/svg"
   xmlns:svg="http://www.w3.org/2000/svg"><defs
   id="defs24" /><sodipodi:namedview
   id="namedview24"
   pagecolor="#ffffff"
   bordercolor="#000000"
   borderopacity="0.25"
   inkscape:showpageshadow="2"
   inkscape:pageopacity="0.0"
   inkscape:pagecheckerboard="0"
   inkscape:deskcolor="#d1d1d1"
   inkscape:zoom="0.716"
   inkscape:cx="500"
   inkscape:cy="211.59218"
   inkscape:window-width="1366"
   inkscape:window-height="705"
   inkscape:window-x="-8"
   inkscape:window-y="-8"
   inkscape:window-maximized="1"
   inkscape:current-layer="svg24" />

<g
   id="内容"
   transform="matrix(1.7597569,0,0,1.7597569,-1132.572,-738.34076)">
	<g
   id="g9">
		<g
   id="g5">
			<path
   d="m 1044,577.834 c -19.077,0 -34.541,15.465 -34.541,34.542 0,19.076 15.464,34.541 34.541,34.541 19.076,0 34.541,-15.465 34.541,-34.541 0,-19.077 -15.465,-34.542 -34.541,-34.542 z m 0,57.543 c -12.704,0 -23.001,-10.299 -23.001,-23.001 0,-12.704 10.297,-23.001 23.001,-23.001 12.703,0 23.001,10.297 23.001,23.001 0,12.702 -10.297,23.001 -23.001,23.001 z"
   id="path1" />
			<path
   d="m 988.718,622.348 c -3.493,-2.76 -6.572,-3.287 -6.477,-3.973 0.082,-0.587 1.719,-0.322 4.636,-1.195 9.033,-2.609 14.381,-9.387 14.381,-18.275 0,-15.633 -10.823,-19.89 -26.456,-19.89 H 946.09 v 66.536 c 0,0 2.387,0.581 5.801,0.581 3.36,0 5.789,-0.578 5.8,-0.581 v -25.259 h 7.464 c 5.323,0.007 9.323,0.673 12.189,2.849 3.08,2.339 5.519,5.543 8.75,10.581 1.889,2.947 6.59,11.818 6.601,11.837 0,0 2.771,0.573 6.792,0.573 3.957,0 6.623,-0.905 6.623,-0.905 -7.563,-12.057 -11.633,-18.328 -17.392,-22.879 z M 972.932,610.392 H 957.691 V 588.79 h 17.303 c 10.021,0 14.692,1.965 14.692,10.115 -0.001,8.668 -6.733,11.487 -16.754,11.487 z"
   id="path2" />
			<path
   d="m 1133.614,579.101 c 0,0 0,29.605 0,39.473 0,10.7 -6.326,17.474 -16.784,17.474 -10.457,0 -16.783,-6.774 -16.783,-17.474 0,-9.868 0,-39.473 0,-39.473 -0.01,-0.002 -2.402,-0.582 -5.838,-0.582 -3.381,0 -5.793,0.582 -5.793,0.582 0,0 0,29.901 0,39.872 0,19.437 12.465,27.945 28.415,27.945 15.951,0 28.415,-8.508 28.415,-27.945 0,-9.971 0,-39.872 0,-39.872 0,0 -2.413,-0.582 -5.794,-0.582 -3.436,10e-4 -5.832,0.58 -5.838,0.582 z"
   id="path3" />
			<path
   d="m 1188.367,579.101 c -7.411,0 -29.642,0 -29.642,0 v 66.416 c 0.01,10e-4 2.402,0.581 5.838,0.581 3.381,0 5.826,-0.579 5.838,-0.581 v -21.484 c 0,0 13.774,0 18.365,0 13.79,0 23.09,-8.908 23.09,-22.717 -10e-4,-13.81 -9.168,-22.215 -23.489,-22.215 z m -1.945,34.558 c -4.005,0 -16.021,0 -16.021,0 v -24.183 c 0,0 12.016,0 16.021,0 10.023,0 14.338,3.299 14.338,12.144 0,8.845 -5.376,12.039 -14.338,12.039 z"
   id="path4" />
			<path
   d="m 902.293,588.471 c 9.367,0 16.399,3.426 22.217,11.467 l 8.568,-6.306 c -7.689,-10.613 -16.076,-15.798 -31.718,-15.798 -19.099,0 -33.841,14.737 -33.841,34.682 0,20.05 14.164,34.402 31.709,34.402 4.933,0 9.416,-1.075 13.177,-2.659 3.441,-1.397 5.376,-2.454 7.602,-3.965 0.926,-0.629 2.008,-1.371 2.706,-1.12 0.593,0.214 0.635,0.864 0.635,1.582 0,2.114 0.016,4.635 0.016,4.635 0.005,0.002 1.823,0.582 4.43,0.582 2.539,0 4.42,-0.732 4.42,-0.732 l -0.01,-35.472 h -29.805 v 9.471 h 19.576 c -0.052,7.108 -6.478,17.042 -21.161,17.042 -13.861,0 -21.967,-11.008 -21.967,-23.765 -10e-4,-14.406 11.367,-24.046 23.446,-24.046 z"
   id="path5" />
		</g>
		<g
   id="g8">
			<path
   d="m 892.466,491.019 c -9.756,20.615 -18.126,43.015 -25.124,66.728 0,0 2.386,0.577 5.999,0.577 3.424,0 5.827,-0.578 5.849,-0.583 2.189,-7.75 5.714,-18.209 5.714,-18.209 0,0 9.211,-1.083 15.379,-0.561 7.251,0.614 10.979,1.635 14.428,3.172 1.505,0.671 2.298,1.148 2.698,2.376 0.813,2.493 2.255,7.253 3.958,13.211 0,0 2.483,0.593 5.961,0.593 3.598,0 5.869,-0.558 5.866,-0.571 -6.84,-23.719 -15.127,-46.119 -25.055,-66.734 h -15.673 z m 9.084,39.484 c -4.937,0 -10.734,0.831 -14.204,1.989 4.113,-12.632 10.81,-28.223 11.96,-30.809 0.332,-0.746 0.667,-0.974 1.017,-0.974 0.326,0 0.659,0.192 0.948,0.827 1.24,2.733 7.934,18.324 11.856,30.037 -2.713,-0.425 -6.438,-1.07 -11.577,-1.07 z"
   id="path6" />
			<path
   d="m 987.038,491.191 v 48.251 c -11.423,-18.386 -22.859,-35.032 -33.997,-48.251 0,0 -2.355,-0.581 -5.724,-0.581 -3.315,0 -5.711,0.578 -5.723,0.581 l 10e-4,66.55 c 0.015,0.004 2.348,0.581 5.693,0.581 3.292,0 5.673,-0.576 5.692,-0.581 l 10e-4,-51.561 c 12.163,16.744 23.591,34.01 33.86,51.561 0,0 2.404,0.581 5.802,0.581 3.343,0 5.78,-0.581 5.78,-0.581 l 10e-4,-66.55 c -0.006,-0.002 -2.342,-0.581 -5.693,-0.581 -3.297,0 -5.693,0.581 -5.693,0.581 z"
   id="path7" />
			<path
   d="m 1008.312,501.97 h 24.136 v 55.771 c 0.01,0.002 2.544,0.582 6.182,0.582 3.581,0 6.17,-0.579 6.182,-0.582 V 501.97 h 24.136 v -10.728 h -60.636 z"
   id="path8" />
		</g>
	</g>
	<g
   id="g18">
		<linearGradient
   id="SVGID_1_"
   gradientUnits="userSpaceOnUse"
   x1="743.67743"
   y1="485.69171"
   x2="778.89148"
   y2="419.4635">
			<stop
   offset="0"
   style="stop-color:#0066FF"
   id="stop9" />
			<stop
   offset="0.2"
   style="stop-color:#1677FF"
   id="stop10" />
			<stop
   offset="1"
   style="stop-color:#04A6FF"
   id="stop11" />
		</linearGradient>
		<path
   fill="url(#SVGID_1_)"
   d="m 749.672,488.674 c -1.546,-0.321 -2.978,-1.463 -3.64,-3.47 -0.584,-1.769 -0.409,-3.697 -0.079,-5.531 1.703,-9.452 3.229,-18.934 5.439,-28.304 1.79,-7.589 4.307,-15.122 8.922,-21.501 3.319,-4.588 8.13,-8.525 13.702,-9.919 9.512,-2.38 13.467,6.91 10.163,14.788 -2.789,6.649 -9.531,10.028 -14.488,14.808 -9.06,8.736 -11.891,23.492 -14.51,35.276 -0.665,2.998 -3.214,4.33 -5.509,3.853 z"
   id="path11"
   style="fill:url(#SVGID_1_)" />
		<g
   id="g14">
			
				<linearGradient
   id="SVGID_00000054223454534170978620000002883890352727083961_"
   gradientUnits="userSpaceOnUse"
   x1="647.80957"
   y1="596.414"
   x2="820.94067"
   y2="533.39941">
				<stop
   offset="0"
   style="stop-color:#0066FF"
   id="stop12" />
				<stop
   offset="0.2"
   style="stop-color:#1677FF"
   id="stop13" />
				<stop
   offset="1"
   style="stop-color:#04A6FF"
   id="stop14" />
			</linearGradient>
			<path
   fill="url(#SVGID_00000054223454534170978620000002883890352727083961_)"
   d="m 732.133,476.621 c -3.317,-0.126 -6.56,-0.594 -9.616,-2.343 -2.883,-1.649 -6.688,-4.588 -10.263,-3.342 -3.923,1.367 -5.442,6.817 -8.486,9.482 -4.281,3.747 -9.493,5.794 -14.316,8.667 -4.182,2.491 -8.199,5.204 -11.975,8.282 -7.498,6.113 -14.027,13.405 -19.272,21.535 -10.176,15.771 -15.273,34.51 -14.54,53.261 2.039,52.176 47.266,92.497 99.99,88.017 47.075,-4.001 83.86,-43.69 84.191,-90.839 0.112,-15.958 -3.923,-31.829 -11.755,-45.74 -7.574,-13.453 -18.557,-24.906 -31.66,-33.067 -13.414,-8.355 -28.918,-13.142 -44.706,-13.81 -2.542,-0.108 -5.088,-0.008 -7.592,-0.103 z"
   id="path14"
   style="fill:url(#SVGID_00000054223454534170978620000002883890352727083961_)" />
		</g>
		
			<linearGradient
   id="SVGID_00000118387882905753948950000005779636312974362299_"
   gradientUnits="userSpaceOnUse"
   x1="693.12708"
   y1="506.52811"
   x2="673.88879"
   y2="434.7298">
			<stop
   offset="0"
   style="stop-color:#0066FF"
   id="stop15" />
			<stop
   offset="0.2"
   style="stop-color:#1677FF"
   id="stop16" />
			<stop
   offset="1"
   style="stop-color:#04A6FF"
   id="stop17" />
		</linearGradient>
		<path
   fill="url(#SVGID_00000118387882905753948950000005779636312974362299_)"
   d="m 668.8,442.232 c 0.85,-2.521 2.181,-4.811 4.159,-6.428 3.832,-3.134 9.484,-2.577 12.656,1.216 7.525,8.999 1.826,22.783 1.526,33.141 -0.253,8.727 2.68,17.745 6.198,25.455 0.682,1.495 1.821,3.017 2.032,4.724 0.353,2.862 -0.886,5.22 -3.099,6.314 -3.757,1.858 -6.157,-2.084 -7.706,-4.889 -3.577,-6.48 -6.63,-13.448 -9.516,-20.263 -2.971,-7.016 -5.482,-14.281 -6.719,-21.82 -0.222,-1.356 -0.404,-2.718 -0.539,-4.085 -0.123,-1.238 -0.208,-2.48 -0.254,-3.723 -0.11,-3.008 0.204,-6.504 1.262,-9.642 z"
   id="path17"
   style="fill:url(#SVGID_00000118387882905753948950000005779636312974362299_)" />
		<path
   fill="#ffffff"
   d="m 821.148,556.754 c -2.969,-34.382 -30.426,-62.211 -61.241,-62.166 -30.72,0.045 -53.175,27.791 -50.238,61.982 2.937,34.201 30.18,62.052 60.933,62.199 30.847,0.146 53.516,-27.622 50.546,-62.015 z m -16.074,38.981 c -7.933,8.884 -18.768,13.951 -30.491,14.314 -13.195,0.402 -26.169,-4.955 -36.576,-15.079 -10.435,-10.151 -16.991,-23.845 -18.487,-38.621 -1.584,-15.644 2.894,-30.656 12.35,-41.211 7.949,-8.872 18.749,-13.926 30.558,-14.279 0.457,-0.013 0.916,-0.02 1.376,-0.02 12.971,0.014 25.723,5.641 35.858,15.865 10.142,10.231 16.488,23.854 17.844,38.304 1.448,15.43 -3.105,30.283 -12.432,40.727 z"
   id="path18" />
	</g>
	<g
   id="g19">
	</g>
	<g
   id="g20">
	</g>
	<g
   id="g21">
	</g>
	<g
   id="g22">
	</g>
	<g
   id="g23">
	</g>
	<g
   id="g24">
	</g>
</g>
</svg>
